# xmcd
#
# Track frame offsets:
#	150
#	10812
#	28717
#	58690
#	68982
#	76392
#	84170
#	92047
#	103437
#	113417
#	134728
#	150871
#	163169
#	180822
#	188640
#
# Disc length: 2836 seconds
#
# Revision: 2
# Processed by: cddbd v1.5.1PL2 Copyright (c) Steve Scherf et al.
# Submitted via: EasyCDDAExtractor 8.0.2.1
#
DISCID=b30b120f
DTITLE=Dio - The Ritz New York City 22-08-90 Disc 1
DYEAR=1990
DGENRE=Hard Rock
TTITLE0=Intro
TTITLE1=Wild One
TTITLE2=Children Of The Sea
TTITLE3=Man on the silver Mountain
TTITLE4=Tarot Woman
TTITLE5=Still I`m sad
TTITLE6=Keyboard solo
TTITLE7=Stargazer
TTITLE8=Long live rock `n` roll
TTITLE9=Born on the Sun
TTITLE10=Stand up and shout
TTITLE11=Why are they watching me Part I
TTITLE12=Guitarmedley
TTITLE13=Why are they watching me Part II
TTITLE14=Don`t talk to strangers
EXTD=YEAR: 1990\n
EXTT0=
EXTT1=
EXTT2=
EXTT3=
EXTT4=
EXTT5=
EXTT6=
EXTT7=
EXTT8=
EXTT9=
EXTT10=
EXTT11=
EXTT12=
EXTT13=
EXTT14=
PLAYORDER=
